<svg xmlns="http://www.w3.org/2000/svg" viewBox="0 0 960 160"><g fill="#8fa9ff"><rect x="0" y="51.79" width="2" height="56.41" rx="1"/><rect x="6" y="40.90" width="2" height="78.21" rx="1"/><rect x="12" y="40.95" width="2" height="78.10" rx="1"/><rect x="18" y="40.49" width="2" height="79.03" rx="1"/><rect x="24" y="41.12" width="2" height="77.75" rx="1"/><rect x="30" y="41.58" width="2" height="76.85" rx="1"/><rect x="36" y="41.08" width="2" height="77.83" rx="1"/><rect x="42" y="41.35" width="2" height="77.30" rx="1"/><rect x="48" y="42.72" width="2" height="74.57" rx="1"/><rect x="54" y="30.56" width="2" height="98.88" rx="1"/><rect x="60" y="28.52" width="2" height="102.96" rx="1"/><rect x="66" y="32.17" width="2" height="95.66" rx="1"/><rect x="72" y="34.21" width="2" height="91.58" rx="1"/><rect x="78" y="34.35" width="2" height="91.31" rx="1"/><rect x="84" y="35.90" width="2" height="88.21" rx="1"/><rect x="90" y="35.13" width="2" height="89.75" rx="1"/><rect x="96" y="34.96" width="2" height="90.07" rx="1"/><rect x="102" y="34.81" width="2" height="90.38" rx="1"/><rect x="108" y="34.38" width="2" height="91.25" rx="1"/><rect x="114" y="35.65" width="2" height="88.70" rx="1"/><rect x="120" y="35.95" width="2" height="88.10" rx="1"/><rect x="126" y="35.00" width="2" height="89.99" rx="1"/><rect x="132" y="35.64" width="2" height="88.72" rx="1"/><rect x="138" y="34.17" width="2" height="91.66" rx="1"/><rect x="144" y="35.52" width="2" height="88.97" rx="1"/><rect x="150" y="35.88" width="2" height="88.24" rx="1"/><rect x="156" y="35.23" width="2" height="89.53" rx="1"/><rect x="162" y="35.39" width="2" height="89.22" rx="1"/><rect x="168" y="36.13" width="2" height="87.74" rx="1"/><rect x="174" y="37.41" width="2" height="85.18" rx="1"/><rect x="180" y="34.54" width="2" height="90.92" rx="1"/><rect x="186" y="36.27" width="2" height="87.46" rx="1"/><rect x="192" y="34.56" width="2" height="90.88" rx="1"/><rect x="198" y="34.57" width="2" height="90.86" rx="1"/><rect x="204" y="33.00" width="2" height="93.99" rx="1"/><rect x="210" y="31.13" width="2" height="97.75" rx="1"/><rect x="216" y="28.95" width="2" height="102.10" rx="1"/><rect x="222" y="25.12" width="2" height="109.75" rx="1"/><rect x="228" y="23.85" width="2" height="112.30" rx="1"/><rect x="234" y="19.97" width="2" height="120.05" rx="1"/><rect x="240" y="16.89" width="2" height="126.21" rx="1"/><rect x="246" y="14.77" width="2" height="130.47" rx="1"/><rect x="252" y="13.31" width="2" height="133.38" rx="1"/><rect x="258" y="11.12" width="2" height="137.75" rx="1"/><rect x="264" y="10.28" width="2" height="139.45" rx="1"/><rect x="270" y="8.00" width="2" height="144.00" rx="1"/><rect x="276" y="8.77" width="2" height="142.47" rx="1"/><rect x="282" y="8.07" width="2" height="143.86" rx="1"/><rect x="288" y="8.41" width="2" height="143.18" rx="1"/><rect x="294" y="8.58" width="2" height="142.84" rx="1"/><rect x="300" y="8.64" width="2" height="142.73" rx="1"/><rect x="306" y="8.07" width="2" height="143.85" rx="1"/><rect x="312" y="8.51" width="2" height="142.98" rx="1"/><rect x="318" y="8.34" width="2" height="143.31" rx="1"/><rect x="324" y="8.59" width="2" height="142.81" rx="1"/><rect x="330" y="8.87" width="2" height="142.27" rx="1"/><rect x="336" y="9.55" width="2" height="140.89" rx="1"/><rect x="342" y="8.40" width="2" height="143.20" rx="1"/><rect x="348" y="9.15" width="2" height="141.70" rx="1"/><rect x="354" y="8.80" width="2" height="142.40" rx="1"/><rect x="360" y="8.15" width="2" height="143.70" rx="1"/><rect x="366" y="8.34" width="2" height="143.32" rx="1"/><rect x="372" y="8.71" width="2" height="142.58" rx="1"/><rect x="378" y="9.31" width="2" height="141.37" rx="1"/><rect x="384" y="8.86" width="2" height="142.28" rx="1"/><rect x="390" y="8.49" width="2" height="143.03" rx="1"/><rect x="396" y="15.22" width="2" height="129.55" rx="1"/><rect x="402" y="21.67" width="2" height="116.65" rx="1"/><rect x="408" y="21.51" width="2" height="116.98" rx="1"/><rect x="414" y="20.72" width="2" height="118.56" rx="1"/><rect x="420" y="21.80" width="2" height="116.39" rx="1"/><rect x="426" y="21.46" width="2" height="117.08" rx="1"/><rect x="432" y="21.51" width="2" height="116.99" rx="1"/><rect x="438" y="21.48" width="2" height="117.04" rx="1"/><rect x="444" y="21.58" width="2" height="116.85" rx="1"/><rect x="450" y="21.99" width="2" height="116.02" rx="1"/><rect x="456" y="21.33" width="2" height="117.34" rx="1"/><rect x="462" y="21.00" width="2" height="118.00" rx="1"/><rect x="468" y="20.84" width="2" height="118.33" rx="1"/><rect x="474" y="21.24" width="2" height="117.52" rx="1"/><rect x="480" y="21.01" width="2" height="117.98" rx="1"/><rect x="486" y="22.20" width="2" height="115.60" rx="1"/><rect x="492" y="29.73" width="2" height="100.55" rx="1"/><rect x="498" y="72.45" width="2" height="15.11" rx="1"/><rect x="504" y="78.00" width="2" height="4.00" rx="1"/><rect x="510" y="78.00" width="2" height="4.00" rx="1"/><rect x="516" y="70.00" width="2" height="20.01" rx="1"/><rect x="522" y="59.58" width="2" height="40.83" rx="1"/><rect x="528" y="55.21" width="2" height="49.57" rx="1"/><rect x="534" y="54.71" width="2" height="50.58" rx="1"/><rect x="540" y="53.86" width="2" height="52.28" rx="1"/><rect x="546" y="52.90" width="2" height="54.20" rx="1"/><rect x="552" y="51.80" width="2" height="56.39" rx="1"/><rect x="558" y="50.87" width="2" height="58.26" rx="1"/><rect x="564" y="49.77" width="2" height="60.45" rx="1"/><rect x="570" y="48.09" width="2" height="63.81" rx="1"/><rect x="576" y="46.42" width="2" height="67.16" rx="1"/><rect x="582" y="44.97" width="2" height="70.07" rx="1"/><rect x="588" y="43.53" width="2" height="72.94" rx="1"/><rect x="594" y="41.57" width="2" height="76.86" rx="1"/><rect x="600" y="39.41" width="2" height="81.19" rx="1"/><rect x="606" y="36.18" width="2" height="87.63" rx="1"/><rect x="612" y="34.16" width="2" height="91.69" rx="1"/><rect x="618" y="30.78" width="2" height="98.44" rx="1"/><rect x="624" y="28.77" width="2" height="102.47" rx="1"/><rect x="630" y="26.14" width="2" height="107.72" rx="1"/><rect x="636" y="24.18" width="2" height="111.65" rx="1"/><rect x="642" y="21.54" width="2" height="116.92" rx="1"/><rect x="648" y="21.38" width="2" height="117.23" rx="1"/><rect x="654" y="21.52" width="2" height="116.96" rx="1"/><rect x="660" y="22.81" width="2" height="114.37" rx="1"/><rect x="666" y="23.83" width="2" height="112.34" rx="1"/><rect x="672" y="26.61" width="2" height="106.78" rx="1"/><rect x="678" y="29.62" width="2" height="100.77" rx="1"/><rect x="684" y="31.40" width="2" height="97.21" rx="1"/><rect x="690" y="33.68" width="2" height="92.63" rx="1"/><rect x="696" y="36.26" width="2" height="87.49" rx="1"/><rect x="702" y="38.46" width="2" height="83.09" rx="1"/><rect x="708" y="39.59" width="2" height="80.83" rx="1"/><rect x="714" y="42.16" width="2" height="75.67" rx="1"/><rect x="720" y="42.80" width="2" height="74.40" rx="1"/><rect x="726" y="43.92" width="2" height="72.16" rx="1"/><rect x="732" y="45.68" width="2" height="68.63" rx="1"/><rect x="738" y="46.98" width="2" height="66.05" rx="1"/><rect x="744" y="48.53" width="2" height="62.93" rx="1"/><rect x="750" y="48.29" width="2" height="63.41" rx="1"/><rect x="756" y="50.48" width="2" height="59.04" rx="1"/><rect x="762" y="51.49" width="2" height="57.01" rx="1"/><rect x="768" y="52.20" width="2" height="55.61" rx="1"/><rect x="774" y="52.67" width="2" height="54.65" rx="1"/><rect x="780" y="53.22" width="2" height="53.57" rx="1"/><rect x="786" y="54.12" width="2" height="51.76" rx="1"/><rect x="792" y="55.68" width="2" height="48.65" rx="1"/><rect x="798" y="60.03" width="2" height="39.94" rx="1"/><rect x="804" y="66.71" width="2" height="26.59" rx="1"/><rect x="810" y="73.38" width="2" height="13.24" rx="1"/><rect x="816" y="78.00" width="2" height="4.00" rx="1"/><rect x="822" y="78.00" width="2" height="4.00" rx="1"/><rect x="828" y="60.28" width="2" height="39.43" rx="1"/><rect x="834" y="36.29" width="2" height="87.43" rx="1"/><rect x="840" y="35.95" width="2" height="88.10" rx="1"/><rect x="846" y="35.43" width="2" height="89.14" rx="1"/><rect x="852" y="36.26" width="2" height="87.48" rx="1"/><rect x="858" y="36.09" width="2" height="87.83" rx="1"/><rect x="864" y="35.34" width="2" height="89.32" rx="1"/><rect x="870" y="36.75" width="2" height="86.50" rx="1"/><rect x="876" y="40.56" width="2" height="78.87" rx="1"/><rect x="882" y="47.68" width="2" height="64.63" rx="1"/><rect x="888" y="50.16" width="2" height="59.67" rx="1"/><rect x="894" y="51.79" width="2" height="56.42" rx="1"/><rect x="900" y="53.97" width="2" height="52.05" rx="1"/><rect x="906" y="58.25" width="2" height="43.50" rx="1"/><rect x="912" y="61.84" width="2" height="36.32" rx="1"/><rect x="918" y="65.29" width="2" height="29.42" rx="1"/><rect x="924" y="69.90" width="2" height="20.20" rx="1"/><rect x="930" y="73.78" width="2" height="12.44" rx="1"/><rect x="936" y="78.00" width="2" height="4.00" rx="1"/><rect x="942" y="78.00" width="2" height="4.00" rx="1"/><rect x="948" y="78.00" width="2" height="4.00" rx="1"/><rect x="954" y="78.00" width="2" height="4.00" rx="1"/></g></svg>